<svg xmlns="http://www.w3.org/2000/svg" viewBox="0 0 256 384" role="img" aria-label="Layered finish gate">
  <defs><linearGradient id="ring" x2="1" y2="1"><stop stop-color="#FFD166"/><stop offset=".5" stop-color="#FF7A3D"/><stop offset="1" stop-color="#A78BFA"/></linearGradient><radialGradient id="core"><stop stop-color="#F4F1FB" stop-opacity=".72"/><stop offset=".22" stop-color="#FFD166" stop-opacity=".25"/><stop offset="1" stop-opacity="0"/></radialGradient><filter id="blur"><feGaussianBlur stdDeviation="9"/></filter></defs>
  <g id="portal-glow"><ellipse cx="128" cy="187" rx="96" ry="138" fill="none" stroke="#FFD166" stroke-width="18" opacity=".22" filter="url(#blur)"/><ellipse cx="128" cy="187" rx="88" ry="128" fill="url(#core)"/></g>
  <g id="portal-ring" fill="none" stroke="url(#ring)" stroke-linecap="round"><path d="M52 326V188C52 89 86 42 128 42s76 47 76 146v138" stroke-width="14"/><path d="M66 326V190c0-84 28-132 62-132s62 48 62 132v136" stroke-width="3" opacity=".7"/><path d="M44 328h168" stroke-width="10"/></g>
  <g id="portal-streaks" stroke="#F4F1FB" stroke-linecap="round" opacity=".7"><path d="M84 300V178"/><path d="M100 260V116"/><path d="M128 292V82"/><path d="M156 260V116"/><path d="M172 300V178"/></g>
  <g id="portal-particles" fill="#FFD166"><circle cx="42" cy="130" r="3"/><circle cx="214" cy="156" r="3"/><circle cx="70" cy="72" r="2"/><circle cx="189" cy="82" r="2"/><circle cx="128" cy="28" r="3"/></g>
</svg>
