<svg xmlns="http://www.w3.org/2000/svg" viewBox="0 0 256 384" role="img" aria-label="Layered multichain gate with original abstract rings">
  <defs><linearGradient id="ring" x2="1" y2="1"><stop stop-color="#38BDF8"/><stop offset=".32" stop-color="#8B5CF6"/><stop offset=".68" stop-color="#FF7A3D"/><stop offset="1" stop-color="#FFD166"/></linearGradient><radialGradient id="core"><stop stop-color="#A78BFA" stop-opacity=".45"/><stop offset="1" stop-opacity="0"/></radialGradient><filter id="blur"><feGaussianBlur stdDeviation="9"/></filter></defs>
  <g id="portal-glow"><circle cx="128" cy="188" r="104" fill="none" stroke="#A78BFA" stroke-width="20" opacity=".22" filter="url(#blur)"/><circle cx="128" cy="188" r="88" fill="url(#core)"/></g>
  <g id="portal-ring" fill="none" stroke="url(#ring)"><ellipse cx="128" cy="188" rx="91" ry="139" stroke-width="10"/><ellipse cx="128" cy="188" rx="68" ry="122" stroke-width="5" transform="rotate(18 128 188)"/><ellipse cx="128" cy="188" rx="68" ry="122" stroke-width="3" transform="rotate(-18 128 188)" opacity=".72"/><path d="M30 330h196" stroke-width="10"/></g>
  <g id="portal-streaks" fill="none" stroke="#F4F1FB" stroke-linecap="round" opacity=".72"><path d="M79 281l29-166M104 299l15-196M152 299l-15-196M177 281l-29-166"/></g>
  <g id="portal-particles" fill="#FFD166"><circle cx="48" cy="78" r="3"/><circle cx="208" cy="78" r="3"/><circle cx="28" cy="218" r="3"/><circle cx="228" cy="218" r="3"/><circle cx="128" cy="28" r="3"/></g>
</svg>
