<svg xmlns="http://www.w3.org/2000/svg" viewBox="0 0 256 384" role="img" aria-label="Layered success gate">
  <defs><linearGradient id="ring" y2="1"><stop stop-color="#F4F1FB"/><stop offset=".32" stop-color="#FFD166"/><stop offset="1" stop-color="#8B5CF6"/></linearGradient><radialGradient id="core"><stop stop-color="#FFD166" stop-opacity=".58"/><stop offset="1" stop-opacity="0"/></radialGradient><filter id="blur"><feGaussianBlur stdDeviation="10"/></filter></defs>
  <g id="portal-glow"><ellipse cx="128" cy="184" rx="100" ry="142" fill="none" stroke="#FFD166" stroke-width="20" opacity=".24" filter="url(#blur)"/><ellipse cx="128" cy="184" rx="82" ry="122" fill="url(#core)"/></g>
  <g id="portal-ring" fill="none" stroke="url(#ring)" stroke-linecap="round"><path d="M48 330V176C48 82 86 36 128 36s80 46 80 140v154" stroke-width="15"/><path d="M70 322V183c0-71 25-118 58-118s58 47 58 118v139" stroke-width="4"/><path d="M38 330h180" stroke-width="10"/></g>
  <g id="portal-streaks" stroke="#F4F1FB" stroke-linecap="round"><path d="M92 286V160"/><path d="M112 272V118"/><path d="M144 272V118"/><path d="M164 286V160"/></g>
  <g id="portal-particles" fill="#FFD166"><path d="M40 92l4 9 9 4-9 4-4 9-4-9-9-4 9-4z"/><path d="M216 122l4 9 9 4-9 4-4 9-4-9-9-4 9-4z"/><circle cx="128" cy="20" r="4"/></g>
</svg>
