<svg xmlns="http://www.w3.org/2000/svg" viewBox="0 0 414 736" role="img" aria-label="Meme Circuit survival zone concept">
  <defs><linearGradient id="bg" y2="1"><stop stop-color="#16051A"/><stop offset=".56" stop-color="#27102D"/><stop offset="1" stop-color="#0C0717"/></linearGradient><radialGradient id="h"><stop stop-color="#FF6EC7" stop-opacity=".64"/><stop offset=".3" stop-color="#FFD166" stop-opacity=".22"/><stop offset="1" stop-opacity="0"/></radialGradient><linearGradient id="rail"><stop stop-color="#FF6EC7"/><stop offset="1" stop-color="#FFD166"/></linearGradient></defs>
  <rect width="414" height="736" fill="url(#bg)"/><ellipse cx="207" cy="120" rx="190" ry="110" fill="url(#h)"/>
  <g fill="#FF6EC7" opacity=".62"><path d="M32 162l8 15-16 2z"/><rect x="71" y="244" width="11" height="11" transform="rotate(24 76 249)"/><circle cx="29" cy="402" r="5"/><path d="M382 162l-8 15 16 2z"/><rect x="332" y="244" width="11" height="11" transform="rotate(-24 337 249)"/><circle cx="385" cy="402" r="5"/></g>
  <g fill="#FFD166" opacity=".72"><circle cx="108" cy="180" r="3"/><path d="M58 336l7 13-14 1z"/><circle cx="306" cy="180" r="3"/><path d="M356 336l-7 13 14 1z"/></g>
  <path d="M170 120L58 736h298L244 120z" fill="#100817"/><path d="M170 120L58 736M244 120l112 616" stroke="url(#rail)" stroke-width="4" fill="none"/>
  <path d="M183 120l-43 616M231 120l43 616" stroke="#F472B6" stroke-opacity=".35" fill="none"/>
</svg>
