<svg xmlns="http://www.w3.org/2000/svg" viewBox="0 0 414 736" role="img" aria-label="Neon Speednet survival zone concept">
  <defs><linearGradient id="bg" y2="1"><stop stop-color="#031211"/><stop offset=".55" stop-color="#062323"/><stop offset="1" stop-color="#070710"/></linearGradient><radialGradient id="h"><stop stop-color="#22D3EE" stop-opacity=".76"/><stop offset="1" stop-opacity="0"/></radialGradient><linearGradient id="rail"><stop stop-color="#34D399"/><stop offset="1" stop-color="#22D3EE"/></linearGradient></defs>
  <rect width="414" height="736" fill="url(#bg)"/><ellipse cx="207" cy="116" rx="190" ry="110" fill="url(#h)"/>
  <g stroke="#34D399" stroke-linecap="round" opacity=".48"><path d="M12 210l110-64M0 276l136-94M20 346l126-120M402 210l-110-64M414 276l-136-94M394 346l-126-120"/><path d="M0 510l150-246M414 510L264 264" stroke-width="3"/></g>
  <path d="M169 116L48 736h318L245 116z" fill="#031211"/><path d="M169 116L48 736M245 116l121 620" stroke="url(#rail)" stroke-width="4" fill="none"/>
  <path d="M182 116l-46 620M232 116l46 620" stroke="#2DD4BF" stroke-opacity=".36" fill="none"/>
  <g fill="#A78BFA"><circle cx="37" cy="221" r="2"/><circle cx="377" cy="221" r="2"/><circle cx="14" cy="460" r="3"/><circle cx="400" cy="460" r="3"/></g>
</svg>
