<svg xmlns="http://www.w3.org/2000/svg" viewBox="0 0 414 736" role="img" aria-label="Orange Chain survival zone concept">
  <defs><linearGradient id="bg" y2="1"><stop stop-color="#140703"/><stop offset=".6" stop-color="#27100C"/><stop offset="1" stop-color="#0C0717"/></linearGradient><radialGradient id="h"><stop stop-color="#FFD166" stop-opacity=".66"/><stop offset="1" stop-opacity="0"/></radialGradient></defs>
  <rect width="414" height="736" fill="url(#bg)"/><ellipse cx="207" cy="120" rx="174" ry="106" fill="url(#h)"/>
  <g fill="#2A130E" stroke="#FF7A3D" stroke-opacity=".62"><rect x="8" y="160" width="62" height="62" rx="8"/><rect x="75" y="245" width="42" height="42" rx="6"/><rect x="344" y="160" width="62" height="62" rx="8"/><rect x="297" y="245" width="42" height="42" rx="6"/><rect x="0" y="410" width="82" height="82" rx="10"/><rect x="332" y="410" width="82" height="82" rx="10"/></g>
  <g stroke="#FFD166" stroke-opacity=".32"><path d="M70 191l33 72M344 191l-33 72M82 451l24-173M332 451l-24-173"/></g>
  <path d="M170 120L56 736h302L244 120z" fill="#0C0717"/><path d="M170 120L56 736M244 120l114 616" stroke="#FF7A3D" stroke-width="6" fill="none"/>
  <path d="M183 120l-43 616M231 120l43 616" stroke="#B45309" stroke-opacity=".42" fill="none"/>
</svg>
