<svg xmlns="http://www.w3.org/2000/svg" viewBox="0 0 64 64" role="img" aria-label="Energized Chain Block state">
  <defs><linearGradient id="g" x2="1" y2="1"><stop stop-color="#FFD166"/><stop offset="1" stop-color="#FF7A3D"/></linearGradient><radialGradient id="c"><stop stop-color="#F4F1FB"/><stop offset=".3" stop-color="#FFD166"/><stop offset="1" stop-color="#FF7A3D" stop-opacity="0"/></radialGradient></defs>
  <g id="energy-rays" stroke="#FFD166" stroke-linecap="round"><path d="M32 1v7M32 56v7M1 32h7M56 32h7M10 10l5 5M49 49l5 5M54 10l-5 5M15 49l-5 5"/></g>
  <path d="M32 7l22 13v24L32 57 10 44V20z" fill="#160D2A" stroke="url(#g)" stroke-width="3"/>
  <path d="M32 14l15 9v17l-15 9-15-9V23z" fill="#2A1633" stroke="#FFD166"/>
  <circle cx="32" cy="32" r="15" fill="url(#c)"/><path d="M35 17l-10 16h7l-4 14 12-18h-7z" fill="#F4F1FB"/>
</svg>
